<svg version="1.1" id="Layer_1" xmlns="http://www.w3.org/2000/svg" xmlns:xlink="http://www.w3.org/1999/xlink" x="0px" y="0px"
	 width="100%" viewBox="0 0 2048 2048" enable-background="new 0 0 2048 2048" xml:space="preserve">
<path fill="#000000" opacity="1.000000" stroke="none" 
	d="
M1145.000000,2049.000000 
	C763.333313,2049.000000 382.166656,2049.000000 1.000000,2049.000000 
	C1.000000,1366.333374 1.000000,683.666687 1.000000,1.000000 
	C683.666687,1.000000 1366.333374,1.000000 2049.000000,1.000000 
	C2049.000000,683.666687 2049.000000,1366.333374 2049.000000,2049.000000 
	C1747.833374,2049.000000 1446.666626,2049.000000 1145.000000,2049.000000 
M1161.384399,1637.509766 
	C1161.715576,1635.880127 1162.041138,1634.249268 1162.378906,1632.620972 
	C1176.902832,1562.625977 1191.411377,1492.627563 1205.964478,1422.638550 
	C1209.548584,1405.402100 1213.277588,1388.195923 1217.560547,1371.240479 
	C1235.740967,1389.348389 1253.908203,1407.469482 1272.128296,1425.537598 
	C1273.498657,1426.896484 1275.245483,1427.875977 1276.975220,1429.953369 
	C1276.983765,1513.939819 1276.872192,1597.926758 1277.125854,1681.912476 
	C1277.165527,1695.024658 1277.977417,1708.267700 1279.952271,1721.218506 
	C1290.306763,1789.124390 1322.722168,1844.768555 1378.205688,1884.887451 
	C1456.847900,1941.752319 1543.032837,1952.187378 1631.084106,1911.375122 
	C1725.640015,1867.547729 1774.774170,1790.053345 1777.368652,1685.814209 
	C1779.412109,1603.712280 1777.749878,1521.518066 1777.733521,1439.364868 
	C1777.733276,1437.735474 1777.733521,1436.106201 1777.733521,1433.963501 
	C1775.559326,1433.963501 1773.780273,1433.963501 1772.001221,1433.963501 
	C1748.338379,1433.963501 1724.675415,1433.988892 1701.012573,1433.955933 
	C1681.020996,1433.927979 1661.029297,1433.832397 1640.950562,1433.078979 
	C1631.123291,1414.828247 1617.932373,1399.488159 1601.458984,1386.884277 
	C1575.501831,1367.023682 1546.386597,1355.953491 1513.612671,1355.082397 
	C1510.015625,1354.986694 1507.417847,1354.086304 1504.845947,1351.491699 
	C1483.024414,1329.477539 1461.060181,1307.604980 1439.158203,1285.670410 
	C1437.991821,1284.502075 1437.001587,1283.157837 1436.014160,1281.200806 
	C1436.408325,1280.470947 1436.785034,1279.731201 1437.198975,1279.012817 
	C1458.132080,1242.693359 1499.076416,1221.947632 1539.386475,1227.232910 
	C1582.174072,1232.842773 1616.030396,1261.888428 1627.188599,1303.130249 
	C1629.548950,1311.854126 1630.388550,1320.989502 1631.919189,1329.879028 
	C1680.181519,1329.879028 1728.760376,1329.879028 1777.662720,1329.879028 
	C1777.662720,1328.445557 1777.686401,1327.311890 1777.659180,1326.179688 
	C1777.083862,1302.256104 1773.479614,1278.834717 1766.408691,1255.933105 
	C1757.529541,1227.175659 1743.449829,1201.157104 1726.414429,1177.053223 
	C1741.385986,1174.736328 1755.958862,1171.028931 1769.881714,1164.917480 
	C1787.450562,1157.206055 1802.980591,1146.374878 1816.388550,1132.849487 
	C1830.151367,1118.966187 1841.114624,1102.906006 1848.601685,1084.715576 
	C1856.508301,1065.505859 1860.690308,1045.491821 1860.763672,1023.866821 
	C1860.132080,1016.305176 1860.072266,1008.644043 1858.776978,1001.197815 
	C1849.842529,949.835632 1821.925171,912.018311 1775.814209,888.125671 
	C1748.430176,873.936401 1718.865356,869.283386 1688.257812,873.227661 
	C1655.637329,877.431396 1627.111084,890.799255 1603.129272,913.444275 
	C1600.510376,915.917358 1597.980469,916.957336 1594.366333,916.953857 
	C1493.926758,916.857788 1393.486938,916.877502 1293.047241,916.871643 
	C1291.383667,916.871521 1289.720215,916.792542 1287.968628,916.169800 
	C1287.888062,915.991394 1287.807617,915.812927 1288.048584,915.059509 
	C1360.394775,842.701294 1432.727173,770.329346 1505.172974,698.071045 
	C1506.817993,696.430298 1509.672119,695.564697 1512.089722,695.211792 
	C1522.076660,693.754211 1532.295288,693.450806 1542.101807,691.259521 
	C1617.788452,674.347107 1672.926025,599.614868 1658.165283,515.860779 
	C1652.909180,486.037323 1639.912842,460.224487 1619.614258,438.050659 
	C1604.744385,421.806946 1586.896118,409.584839 1566.531006,401.149506 
	C1536.543091,388.728271 1505.538452,385.940430 1473.991211,393.120483 
	C1405.167358,408.784546 1356.751221,468.071075 1354.719360,538.094727 
	C1354.644287,540.682495 1353.004761,543.787659 1351.118652,545.678894 
	C1280.045532,616.950623 1208.858276,688.108643 1137.679443,759.274780 
	C1136.624268,760.329773 1135.480835,761.296448 1133.843872,762.039185 
	C1133.647827,762.005798 1133.451660,761.972351 1133.150024,761.015137 
	C1133.143921,658.864441 1133.119019,556.713806 1133.252319,454.563293 
	C1133.255249,452.247070 1134.530884,449.478333 1136.094482,447.692841 
	C1145.453613,437.005676 1153.948730,425.785126 1160.492432,413.092834 
	C1177.107056,380.867462 1182.043335,346.872284 1174.765747,311.512451 
	C1167.056152,274.053864 1147.659912,243.579956 1116.978760,220.458664 
	C1081.561646,193.768356 1041.755371,184.613052 998.358948,191.853348 
	C917.219543,205.390686 860.242981,283.548645 873.961609,366.882874 
	C879.067688,397.899994 892.202393,424.855896 913.893372,447.686127 
	C915.588440,449.470184 916.744324,452.559113 916.747742,455.043549 
	C916.888672,556.034363 916.868164,657.025330 916.868164,758.016296 
	C916.868164,759.588623 916.868164,761.160950 916.868164,762.733276 
	C916.235291,763.176025 915.602356,763.618774 914.969482,764.061462 
	C913.889832,762.450867 913.041931,760.608704 911.697327,759.262695 
	C841.266113,688.756836 770.820557,618.264954 700.245605,547.903015 
	C696.541565,544.210144 694.751404,540.566956 694.952576,535.337219 
	C695.135620,530.580200 694.546692,525.741638 693.829224,521.010132 
	C688.930481,488.705566 675.388123,460.480286 652.966370,436.729065 
	C638.905151,421.834137 622.294434,410.376526 603.486145,402.102936 
	C578.438660,391.084808 552.216980,387.468048 525.204773,390.266937 
	C498.357269,393.048706 473.930878,402.682312 452.121948,418.677917 
	C399.202881,457.491150 379.384369,521.563232 393.442719,578.758728 
	C402.053558,613.791443 421.112946,642.471863 450.007324,664.366943 
	C475.462128,683.655640 504.133179,694.047729 536.084473,694.987793 
	C540.052002,695.104492 542.830261,696.224121 545.625732,699.024902 
	C616.615845,770.149902 687.691772,841.189331 758.742920,912.253418 
	C759.904968,913.415710 760.947815,914.697205 761.943359,916.330383 
	C761.943359,916.330383 761.939880,916.750488 761.016113,916.858459 
	C660.746338,916.864563 560.476501,916.826843 460.206909,916.981384 
	C453.925446,916.991089 448.545807,916.414185 444.375610,911.078247 
	C442.583557,908.785217 439.997711,907.067017 437.629486,905.276917 
	C405.299377,880.838318 369.282806,869.265015 328.472534,872.867920 
	C299.467682,875.428589 273.362701,885.171631 250.452423,902.794312 
	C210.558334,933.480957 190.379547,974.392090 189.083435,1025.622437 
	C189.772781,1033.696045 189.866043,1041.873535 191.252365,1049.825684 
	C198.054688,1088.844727 216.974884,1120.856445 248.045746,1145.472534 
	C266.138672,1159.806763 286.520599,1169.512939 309.201141,1174.210205 
	C315.138214,1175.439819 321.067749,1176.705688 326.802124,1178.611084 
	C287.781494,1230.651367 271.039246,1289.103760 276.791046,1353.865601 
	C281.067688,1402.017944 298.610687,1445.033447 327.940552,1483.362671 
	C345.879272,1506.805298 367.564545,1525.937622 393.128662,1541.462769 
	C396.649811,1558.223755 403.144531,1573.836426 412.211853,1588.272949 
	C430.068634,1616.703369 454.574554,1637.491943 485.836548,1649.848267 
	C510.925842,1659.765137 536.879517,1663.157715 563.802856,1659.153931 
	C583.612183,1656.208130 602.117615,1650.004639 619.846313,1640.308105 
	C628.747131,1659.759888 631.582214,1680.016357 628.165833,1701.176270 
	C620.502319,1748.641724 580.116516,1785.140747 532.130310,1787.865234 
	C483.408539,1790.631470 438.877472,1759.071533 426.180817,1712.327637 
	C423.725159,1703.286865 422.846710,1693.817627 421.241333,1684.549561 
	C372.982635,1684.549561 324.443787,1684.549561 275.734955,1684.549561 
	C275.734955,1687.072021 275.677338,1689.228149 275.743378,1691.380493 
	C277.441589,1746.741333 295.601990,1796.102051 329.724792,1839.671875 
	C401.953857,1931.898682 532.379944,1961.947998 636.540649,1908.605957 
	C718.958496,1866.398682 765.617615,1798.174805 775.061646,1705.776489 
	C780.263428,1654.882812 769.262939,1606.914185 744.391541,1562.142212 
	C732.417969,1540.588013 717.147034,1521.605835 700.244812,1503.456055 
	C700.908142,1502.713623 701.536926,1501.936646 702.239685,1501.233643 
	C745.874451,1457.588013 789.514587,1413.947510 833.162476,1370.315063 
	C833.981567,1369.496216 834.901611,1368.778442 836.022522,1368.786987 
	C836.342957,1370.249023 836.678101,1371.708008 836.981628,1373.173584 
	C851.177185,1441.713135 865.391052,1510.248901 879.549194,1578.796265 
	C883.414062,1597.508301 887.110718,1616.255005 890.299866,1635.333618 
	C888.464417,1639.034302 886.499146,1642.677002 884.814453,1646.445190 
	C873.070984,1672.711792 869.435913,1700.285522 873.272095,1728.597412 
	C876.876953,1755.202271 886.954102,1779.467163 903.520264,1800.760620 
	C911.464478,1810.971680 920.270935,1820.425781 931.179321,1828.743408 
	C938.533875,1864.000366 945.888428,1899.257202 953.230408,1934.453735 
	C1002.324890,1934.453735 1051.036377,1934.453735 1099.869751,1934.453735 
	C1103.944092,1914.835449 1107.925781,1895.469482 1111.996216,1876.122070 
	C1115.583862,1859.069702 1119.270264,1842.038086 1123.532959,1824.730469 
	C1131.880859,1815.792358 1141.043701,1807.474854 1148.417969,1797.795044 
	C1167.471558,1772.783813 1176.840942,1744.016235 1177.839844,1712.706421 
	C1178.160278,1702.664673 1177.283936,1692.473389 1175.837524,1682.512573 
	C1173.587524,1667.016968 1168.780640,1652.189209 1161.384399,1637.509766 
z"/>
<path fill="#FFB13B" opacity="1.000000" stroke="none" 
	d="
M1134.378662,762.304443 
	C1135.480835,761.296448 1136.624268,760.329773 1137.679443,759.274780 
	C1208.858276,688.108643 1280.045532,616.950623 1351.118652,545.678894 
	C1353.004761,543.787659 1354.644287,540.682495 1354.719360,538.094727 
	C1356.751221,468.071075 1405.167358,408.784546 1473.991211,393.120483 
	C1505.538452,385.940430 1536.543091,388.728271 1566.531006,401.149506 
	C1586.896118,409.584839 1604.744385,421.806946 1619.614258,438.050659 
	C1639.912842,460.224487 1652.909180,486.037323 1658.165283,515.860779 
	C1672.926025,599.614868 1617.788452,674.347107 1542.101807,691.259521 
	C1532.295288,693.450806 1522.076660,693.754211 1512.089722,695.211792 
	C1509.672119,695.564697 1506.817993,696.430298 1505.172974,698.071045 
	C1432.727173,770.329346 1360.394775,842.701294 1287.634888,915.511475 
	C1287.499634,916.225769 1287.778198,916.488037 1288.056641,916.750366 
	C1289.720215,916.792542 1291.383667,916.871521 1293.047241,916.871643 
	C1393.486938,916.877502 1493.926758,916.857788 1594.366333,916.953857 
	C1597.980469,916.957336 1600.510376,915.917358 1603.129272,913.444275 
	C1627.111084,890.799255 1655.637329,877.431396 1688.257812,873.227661 
	C1718.865356,869.283386 1748.430176,873.936401 1775.814209,888.125671 
	C1821.925171,912.018311 1849.842529,949.835632 1858.776978,1001.197815 
	C1860.072266,1008.644043 1860.132080,1016.305176 1860.349121,1024.368042 
	C1858.270264,1024.912842 1856.606201,1024.994629 1854.942017,1024.994629 
	C1301.673950,1025.000122 748.405884,1025.000244 195.137863,1024.986938 
	C193.146820,1024.986816 191.155792,1024.788940 189.164749,1024.683472 
	C190.379547,974.392090 210.558334,933.480957 250.452423,902.794312 
	C273.362701,885.171631 299.467682,875.428589 328.472534,872.867920 
	C369.282806,869.265015 405.299377,880.838318 437.629486,905.276917 
	C439.997711,907.067017 442.583557,908.785217 444.375610,911.078247 
	C448.545807,916.414185 453.925446,916.991089 460.206909,916.981384 
	C560.476501,916.826843 660.746338,916.864563 761.728638,916.871338 
	C762.309570,916.563843 762.177979,916.243408 762.046387,915.923096 
	C760.947815,914.697205 759.904968,913.415710 758.742920,912.253418 
	C687.691772,841.189331 616.615845,770.149902 545.625732,699.024902 
	C542.830261,696.224121 540.052002,695.104492 536.084473,694.987793 
	C504.133179,694.047729 475.462128,683.655640 450.007324,664.366943 
	C421.112946,642.471863 402.053558,613.791443 393.442719,578.758728 
	C379.384369,521.563232 399.202881,457.491150 452.121948,418.677917 
	C473.930878,402.682312 498.357269,393.048706 525.204773,390.266937 
	C552.216980,387.468048 578.438660,391.084808 603.486145,402.102936 
	C622.294434,410.376526 638.905151,421.834137 652.966370,436.729065 
	C675.388123,460.480286 688.930481,488.705566 693.829224,521.010132 
	C694.546692,525.741638 695.135620,530.580200 694.952576,535.337219 
	C694.751404,540.566956 696.541565,544.210144 700.245605,547.903015 
	C770.820557,618.264954 841.266113,688.756836 911.697327,759.262695 
	C913.041931,760.608704 913.889832,762.450867 914.969482,764.061462 
	C915.602356,763.618774 916.235291,763.176025 916.868164,762.733276 
	C916.868164,761.160950 916.868164,759.588623 916.868164,758.016296 
	C916.868164,657.025330 916.888672,556.034363 916.747742,455.043549 
	C916.744324,452.559113 915.588440,449.470184 913.893372,447.686127 
	C892.202393,424.855896 879.067688,397.899994 873.961609,366.882874 
	C860.242981,283.548645 917.219543,205.390686 998.358948,191.853348 
	C1041.755371,184.613052 1081.561646,193.768356 1116.978760,220.458664 
	C1147.659912,243.579956 1167.056152,274.053864 1174.765747,311.512451 
	C1182.043335,346.872284 1177.107056,380.867462 1160.492432,413.092834 
	C1153.948730,425.785126 1145.453613,437.005676 1136.094482,447.692841 
	C1134.530884,449.478333 1133.255249,452.247070 1133.252319,454.563293 
	C1133.119019,556.713806 1133.143921,658.864441 1133.138672,761.741028 
	C1133.544556,762.412720 1133.961548,762.358582 1134.378662,762.304443 
z"/>
<path fill="#FEFEFE" opacity="1.000000" stroke="none" 
	d="
M1641.037720,1433.766724 
	C1661.029297,1433.832397 1681.020996,1433.927979 1701.012573,1433.955933 
	C1724.675415,1433.988892 1748.338379,1433.963501 1772.001221,1433.963501 
	C1773.780273,1433.963501 1775.559326,1433.963501 1777.733521,1433.963501 
	C1777.733521,1436.106201 1777.733276,1437.735474 1777.733521,1439.364868 
	C1777.749878,1521.518066 1779.412109,1603.712280 1777.368652,1685.814209 
	C1774.774170,1790.053345 1725.640015,1867.547729 1631.084106,1911.375122 
	C1543.032837,1952.187378 1456.847900,1941.752319 1378.205688,1884.887451 
	C1322.722168,1844.768555 1290.306763,1789.124390 1279.952271,1721.218506 
	C1277.977417,1708.267700 1277.165527,1695.024658 1277.125854,1681.912476 
	C1276.872192,1597.926758 1276.983765,1513.939819 1276.980713,1429.028076 
	C1276.988403,1395.454834 1277.022095,1362.806763 1276.982788,1330.158813 
	C1276.954590,1306.711304 1280.237793,1283.752563 1286.621338,1261.195068 
	C1295.468384,1229.932861 1310.431519,1201.811157 1330.248047,1175.825073 
	C1342.579102,1159.960205 1356.776001,1146.400391 1372.277588,1133.730347 
	C1412.564575,1102.324829 1457.821777,1084.464844 1508.485229,1080.773682 
	C1567.710815,1076.458740 1621.781006,1091.372803 1670.658203,1125.103149 
	C1691.649414,1139.589355 1709.558350,1157.325439 1725.521118,1177.115112 
	C1743.449829,1201.157104 1757.529541,1227.175659 1766.408691,1255.933105 
	C1773.479614,1278.834717 1777.083862,1302.256104 1777.659180,1326.179688 
	C1777.686401,1327.311890 1777.662720,1328.445557 1777.662720,1329.879028 
	C1728.760376,1329.879028 1680.181519,1329.879028 1631.919189,1329.879028 
	C1630.388550,1320.989502 1629.548950,1311.854126 1627.188599,1303.130249 
	C1616.030396,1261.888428 1582.174072,1232.842773 1539.386475,1227.232910 
	C1499.076416,1221.947632 1458.132080,1242.693359 1437.198975,1279.012817 
	C1436.785034,1279.731201 1436.408325,1280.470947 1435.688965,1281.755859 
	C1427.225586,1298.155029 1423.651123,1314.971069 1423.672363,1332.789062 
	C1423.791016,1432.367065 1423.727905,1531.945435 1423.738770,1631.523682 
	C1423.738892,1633.012573 1423.894531,1634.501587 1423.866455,1636.448364 
	C1423.747070,1652.401978 1423.602905,1667.899536 1423.796631,1683.392700 
	C1423.875488,1689.700562 1424.186768,1696.084839 1425.246216,1702.288452 
	C1434.029785,1753.721191 1481.190063,1790.982178 1533.260742,1787.839722 
	C1585.681396,1784.676147 1628.383911,1742.740479 1630.623047,1690.491211 
	C1631.927002,1660.060791 1630.840820,1629.527710 1630.907959,1598.575806 
	C1630.985962,1592.354858 1630.985962,1586.599121 1630.985962,1580.458496 
	C1596.067383,1580.458496 1561.833008,1580.458496 1527.498169,1580.458496 
	C1527.498169,1531.490723 1527.498169,1482.934937 1527.498169,1433.964355 
	C1533.036133,1433.964355 1538.329102,1433.973267 1543.621948,1433.963013 
	C1576.093872,1433.900024 1608.565796,1433.832520 1641.037720,1433.766724 
z"/>
<path fill="#261A09" opacity="1.000000" stroke="none" 
	d="
M1725.967773,1177.084229 
	C1709.558350,1157.325439 1691.649414,1139.589355 1670.658203,1125.103149 
	C1621.781006,1091.372803 1567.710815,1076.458740 1508.485229,1080.773682 
	C1457.821777,1084.464844 1412.564575,1102.324829 1371.956787,1133.474121 
	C1370.495483,1133.203491 1369.675903,1133.020020 1368.856445,1133.019531 
	C1342.392456,1133.004272 1315.928589,1133.005371 1289.464600,1133.015869 
	C1288.895874,1133.016113 1288.327148,1133.157959 1288.555176,1133.127563 
	C1302.294922,1147.353760 1316.126099,1161.674805 1329.957520,1175.995850 
	C1310.431519,1201.811157 1295.468384,1229.932861 1286.621338,1261.195068 
	C1280.237793,1283.752563 1276.954590,1306.711304 1276.982788,1330.158813 
	C1277.022095,1362.806763 1276.988403,1395.454834 1276.901733,1428.567383 
	C1275.245483,1427.875977 1273.498657,1426.896484 1272.128296,1425.537598 
	C1253.908203,1407.469482 1235.740967,1389.348389 1217.214355,1370.697144 
	C1218.907837,1360.216431 1220.931763,1350.276001 1222.989258,1340.342285 
	C1238.504272,1265.435181 1254.027710,1190.529907 1269.542725,1115.622681 
	C1271.980835,1103.851562 1274.389038,1092.074097 1276.837036,1080.173462 
	C1227.648315,1080.173462 1179.025391,1080.173462 1130.245117,1080.173462 
	C1095.825562,1246.418945 1061.440674,1412.496704 1027.055786,1578.574463 
	C1026.783203,1578.530884 1026.510620,1578.487305 1026.238037,1578.443726 
	C991.790955,1412.282471 957.343933,1246.121094 922.931396,1080.126221 
	C873.769531,1080.126221 825.297058,1080.126221 776.607178,1080.126221 
	C776.812866,1081.765625 776.896240,1083.241699 777.192749,1084.673706 
	C784.948608,1122.127686 792.752075,1159.571777 800.494812,1197.028442 
	C812.275452,1254.019287 824.016663,1311.018066 835.774658,1368.013550 
	C834.901611,1368.778442 833.981567,1369.496216 833.162476,1370.315063 
	C789.514587,1413.947510 745.874451,1457.588013 702.239685,1501.233643 
	C701.536926,1501.936646 700.908142,1502.713623 699.783447,1503.651245 
	C695.083374,1500.108276 690.973938,1496.210571 686.585571,1492.657227 
	C653.996094,1466.269897 616.344482,1450.646362 575.729858,1442.119263 
	C552.029785,1437.143433 527.934204,1434.073364 504.057098,1429.912964 
	C478.160370,1425.400635 457.295319,1412.695068 442.478943,1390.945801 
	C444.958466,1389.353882 447.125366,1387.846680 449.238403,1386.267578 
	C475.386047,1366.726685 504.576447,1355.831055 537.376160,1354.863403 
	C539.859436,1354.790161 542.877869,1353.458374 544.652588,1351.704834 
	C567.532288,1329.097412 590.235779,1306.311523 612.962341,1283.549194 
	C614.127014,1282.382568 615.097595,1281.022095 616.454041,1279.950928 
	C625.204102,1295.605591 629.364685,1312.213745 629.683411,1329.945557 
	C678.626404,1329.945557 727.191101,1329.945557 776.116821,1329.945557 
	C776.116821,1328.089722 776.142151,1326.464600 776.113037,1324.840698 
	C775.536743,1292.688232 768.820984,1261.862061 756.299988,1232.251709 
	C747.436829,1211.291626 735.512268,1192.177002 722.167969,1174.048218 
	C723.234741,1173.591064 724.078857,1173.318726 724.639099,1172.761230 
	C736.567505,1160.890381 748.478638,1149.002197 760.338928,1137.063354 
	C761.286865,1136.109253 761.841125,1134.764038 762.885498,1133.115601 
	C734.869385,1133.115601 707.721863,1133.115601 680.253906,1133.045898 
	C640.040955,1102.165283 595.075623,1084.390747 544.725769,1080.746826 
	C486.201477,1076.511353 432.666992,1091.077148 384.123627,1124.008423 
	C362.170776,1138.901001 343.537018,1157.320557 327.000732,1177.954956 
	C321.067749,1176.705688 315.138214,1175.439819 309.201141,1174.210205 
	C286.520599,1169.512939 266.138672,1159.806763 248.045746,1145.472534 
	C216.974884,1120.856445 198.054688,1088.844727 191.252365,1049.825684 
	C189.866043,1041.873535 189.772781,1033.696045 189.124084,1025.152954 
	C191.155792,1024.788940 193.146820,1024.986816 195.137863,1024.986938 
	C748.405884,1025.000244 1301.673950,1025.000122 1854.942017,1024.994629 
	C1856.606201,1024.994629 1858.270264,1024.912842 1860.383545,1024.773438 
	C1860.690308,1045.491821 1856.508301,1065.505859 1848.601685,1084.715576 
	C1841.114624,1102.906006 1830.151367,1118.966187 1816.388550,1132.849487 
	C1802.980591,1146.374878 1787.450562,1157.206055 1769.881714,1164.917480 
	C1755.958862,1171.028931 1741.385986,1174.736328 1725.967773,1177.084229 
z"/>
<path fill="#FFFFFF" opacity="1.000000" stroke="none" 
	d="
M442.141418,1390.997192 
	C457.295319,1412.695068 478.160370,1425.400635 504.057098,1429.912964 
	C527.934204,1434.073364 552.029785,1437.143433 575.729858,1442.119263 
	C616.344482,1450.646362 653.996094,1466.269897 686.585571,1492.657227 
	C690.973938,1496.210571 695.083374,1500.108276 699.639343,1503.957275 
	C717.147034,1521.605835 732.417969,1540.588013 744.391541,1562.142212 
	C769.262939,1606.914185 780.263428,1654.882812 775.061646,1705.776489 
	C765.617615,1798.174805 718.958496,1866.398682 636.540649,1908.605957 
	C532.379944,1961.947998 401.953857,1931.898682 329.724792,1839.671875 
	C295.601990,1796.102051 277.441589,1746.741333 275.743378,1691.380493 
	C275.677338,1689.228149 275.734955,1687.072021 275.734955,1684.549561 
	C324.443787,1684.549561 372.982635,1684.549561 421.241333,1684.549561 
	C422.846710,1693.817627 423.725159,1703.286865 426.180817,1712.327637 
	C438.877472,1759.071533 483.408539,1790.631470 532.130310,1787.865234 
	C580.116516,1785.140747 620.502319,1748.641724 628.165833,1701.176270 
	C631.582214,1680.016357 628.747131,1659.759888 619.516418,1639.719116 
	C608.180420,1616.447510 591.373169,1599.897583 567.433838,1591.402222 
	C557.765076,1587.971069 547.774048,1585.239624 537.735291,1583.102539 
	C515.480713,1578.365356 492.990173,1574.704712 470.804657,1569.682739 
	C443.667297,1563.540161 417.775146,1553.709839 393.163971,1540.634155 
	C367.564545,1525.937622 345.879272,1506.805298 327.940552,1483.362671 
	C298.610687,1445.033447 281.067688,1402.017944 276.791046,1353.865601 
	C271.039246,1289.103760 287.781494,1230.651367 326.901428,1178.282959 
	C343.537018,1157.320557 362.170776,1138.901001 384.123627,1124.008423 
	C432.666992,1091.077148 486.201477,1076.511353 544.725769,1080.746826 
	C595.075623,1084.390747 640.040955,1102.165283 680.423828,1133.352173 
	C696.138062,1145.573730 709.390930,1159.416260 721.813110,1174.100220 
	C735.512268,1192.177002 747.436829,1211.291626 756.299988,1232.251709 
	C768.820984,1261.862061 775.536743,1292.688232 776.113037,1324.840698 
	C776.142151,1326.464600 776.116821,1328.089722 776.116821,1329.945557 
	C727.191101,1329.945557 678.626404,1329.945557 629.683411,1329.945557 
	C629.364685,1312.213745 625.204102,1295.605591 616.391724,1279.610352 
	C577.703308,1212.592529 484.408875,1208.520020 440.537689,1271.409790 
	C415.540527,1307.243652 416.226898,1358.431274 442.141418,1390.997192 
z"/>
<path fill="#FFFFFF" opacity="1.000000" stroke="none" 
	d="
M835.898560,1368.400269 
	C824.016663,1311.018066 812.275452,1254.019287 800.494812,1197.028442 
	C792.752075,1159.571777 784.948608,1122.127686 777.192749,1084.673706 
	C776.896240,1083.241699 776.812866,1081.765625 776.607178,1080.126221 
	C825.297058,1080.126221 873.769531,1080.126221 922.931396,1080.126221 
	C957.343933,1246.121094 991.790955,1412.282471 1026.238037,1578.443726 
	C1026.510620,1578.487305 1026.783203,1578.530884 1027.055786,1578.574463 
	C1061.440674,1412.496704 1095.825562,1246.418945 1130.245117,1080.173462 
	C1179.025391,1080.173462 1227.648315,1080.173462 1276.837036,1080.173462 
	C1274.389038,1092.074097 1271.980835,1103.851562 1269.542725,1115.622681 
	C1254.027710,1190.529907 1238.504272,1265.435181 1222.989258,1340.342285 
	C1220.931763,1350.276001 1218.907837,1360.216431 1216.904175,1370.564819 
	C1213.277588,1388.195923 1209.548584,1405.402100 1205.964478,1422.638550 
	C1191.411377,1492.627563 1176.902832,1562.625977 1162.378906,1632.620972 
	C1162.041138,1634.249268 1161.715576,1635.880127 1161.223999,1638.266235 
	C1151.484253,1685.219482 1141.871826,1731.409302 1132.343506,1777.616699 
	C1129.091431,1793.387817 1126.050415,1809.202515 1122.912842,1824.997314 
	C1119.270264,1842.038086 1115.583862,1859.069702 1111.996216,1876.122070 
	C1107.925781,1895.469482 1103.944092,1914.835449 1099.869751,1934.453735 
	C1051.036377,1934.453735 1002.324890,1934.453735 953.230408,1934.453735 
	C945.888428,1899.257202 938.533875,1864.000366 931.074463,1827.971924 
	C921.329712,1780.673340 911.712097,1734.141602 902.038391,1687.621582 
	C898.387085,1670.062500 894.606323,1652.530273 890.884521,1634.985840 
	C887.110718,1616.255005 883.414062,1597.508301 879.549194,1578.796265 
	C865.391052,1510.248901 851.177185,1441.713135 836.981628,1373.173584 
	C836.678101,1371.708008 836.342957,1370.249023 835.898560,1368.400269 
z"/>
<path fill="#261A09" opacity="1.000000" stroke="none" 
	d="
M1423.977539,1635.990479 
	C1423.894531,1634.501587 1423.738892,1633.012573 1423.738770,1631.523682 
	C1423.727905,1531.945435 1423.791016,1432.367065 1423.672363,1332.789062 
	C1423.651123,1314.971069 1427.225586,1298.155029 1435.646484,1282.103149 
	C1437.001587,1283.157837 1437.991821,1284.502075 1439.158203,1285.670410 
	C1461.060181,1307.604980 1483.024414,1329.477539 1504.845947,1351.491699 
	C1507.417847,1354.086304 1510.015625,1354.986694 1513.612671,1355.082397 
	C1546.386597,1355.953491 1575.501831,1367.023682 1601.458984,1386.884277 
	C1617.932373,1399.488159 1631.123291,1414.828247 1640.994141,1433.422852 
	C1608.565796,1433.832520 1576.093872,1433.900024 1543.621948,1433.963013 
	C1538.329102,1433.973267 1533.036133,1433.964355 1527.498169,1433.964355 
	C1527.498169,1482.934937 1527.498169,1531.490723 1527.498169,1580.458496 
	C1561.833008,1580.458496 1596.067383,1580.458496 1630.985962,1580.458496 
	C1630.985962,1586.599121 1630.985962,1592.354858 1630.627197,1598.740723 
	C1627.435669,1602.822876 1624.739014,1606.397827 1621.747192,1609.706177 
	C1607.423096,1625.545410 1590.653809,1638.121338 1571.159668,1646.921265 
	C1540.472290,1660.774414 1508.608032,1664.212402 1475.650024,1657.347168 
	C1457.089478,1653.481201 1440.035522,1645.931274 1423.977539,1635.990479 
z"/>
<path fill="#261A0A" opacity="1.000000" stroke="none" 
	d="
M393.146301,1541.048462 
	C417.775146,1553.709839 443.667297,1563.540161 470.804657,1569.682739 
	C492.990173,1574.704712 515.480713,1578.365356 537.735291,1583.102539 
	C547.774048,1585.239624 557.765076,1587.971069 567.433838,1591.402222 
	C591.373169,1599.897583 608.180420,1616.447510 619.258606,1639.484375 
	C602.117615,1650.004639 583.612183,1656.208130 563.802856,1659.153931 
	C536.879517,1663.157715 510.925842,1659.765137 485.836548,1649.848267 
	C454.574554,1637.491943 430.068634,1616.703369 412.211853,1588.272949 
	C403.144531,1573.836426 396.649811,1558.223755 393.146301,1541.048462 
z"/>
<path fill="#271B0A" opacity="1.000000" stroke="none" 
	d="
M890.592224,1635.159668 
	C894.606323,1652.530273 898.387085,1670.062500 902.038391,1687.621582 
	C911.712097,1734.141602 921.329712,1780.673340 930.928528,1827.603027 
	C920.270935,1820.425781 911.464478,1810.971680 903.520264,1800.760620 
	C886.954102,1779.467163 876.876953,1755.202271 873.272095,1728.597412 
	C869.435913,1700.285522 873.070984,1672.711792 884.814453,1646.445190 
	C886.499146,1642.677002 888.464417,1639.034302 890.592224,1635.159668 
z"/>
<path fill="#271B0A" opacity="1.000000" stroke="none" 
	d="
M1123.222900,1824.863892 
	C1126.050415,1809.202515 1129.091431,1793.387817 1132.343506,1777.616699 
	C1141.871826,1731.409302 1151.484253,1685.219482 1161.220947,1638.658447 
	C1168.780640,1652.189209 1173.587524,1667.016968 1175.837524,1682.512573 
	C1177.283936,1692.473389 1178.160278,1702.664673 1177.839844,1712.706421 
	C1176.840942,1744.016235 1167.471558,1772.783813 1148.417969,1797.795044 
	C1141.043701,1807.474854 1131.880859,1815.792358 1123.222900,1824.863892 
z"/>
<path fill="#33230C" opacity="1.000000" stroke="none" 
	d="
M1288.012695,916.460083 
	C1287.778198,916.488037 1287.499634,916.225769 1287.474243,915.798950 
	C1287.807617,915.812927 1287.888062,915.991394 1288.012695,916.460083 
z"/>
<path fill="#33230C" opacity="1.000000" stroke="none" 
	d="
M761.994873,916.126709 
	C762.177979,916.243408 762.309570,916.563843 762.190552,916.817383 
	C761.939880,916.750488 761.943359,916.330383 761.994873,916.126709 
z"/>
<path fill="#36250C" opacity="1.000000" stroke="none" 
	d="
M1134.111328,762.171814 
	C1133.961548,762.358582 1133.544556,762.412720 1133.191406,762.202942 
	C1133.451660,761.972351 1133.647827,762.005798 1134.111328,762.171814 
z"/>
<path fill="#000000" opacity="1.000000" stroke="none" 
	d="
M1423.866455,1636.448364 
	C1440.035522,1645.931274 1457.089478,1653.481201 1475.650024,1657.347168 
	C1508.608032,1664.212402 1540.472290,1660.774414 1571.159668,1646.921265 
	C1590.653809,1638.121338 1607.423096,1625.545410 1621.747192,1609.706177 
	C1624.739014,1606.397827 1627.435669,1602.822876 1630.549194,1599.205811 
	C1630.840820,1629.527710 1631.927002,1660.060791 1630.623047,1690.491211 
	C1628.383911,1742.740479 1585.681396,1784.676147 1533.260742,1787.839722 
	C1481.190063,1790.982178 1434.029785,1753.721191 1425.246216,1702.288452 
	C1424.186768,1696.084839 1423.875488,1689.700562 1423.796631,1683.392700 
	C1423.602905,1667.899536 1423.747070,1652.401978 1423.866455,1636.448364 
z"/>
<path fill="#010101" opacity="1.000000" stroke="none" 
	d="
M1330.247925,1175.825195 
	C1316.126099,1161.674805 1302.294922,1147.353760 1288.555176,1133.127563 
	C1288.327148,1133.157959 1288.895874,1133.016113 1289.464600,1133.015869 
	C1315.928589,1133.005371 1342.392456,1133.004272 1368.856445,1133.019531 
	C1369.675903,1133.020020 1370.495483,1133.203491 1371.635742,1133.558105 
	C1356.776001,1146.400391 1342.579102,1159.960205 1330.247925,1175.825195 
z"/>
<path fill="#010101" opacity="1.000000" stroke="none" 
	d="
M442.478943,1390.945801 
	C416.226898,1358.431274 415.540527,1307.243652 440.537689,1271.409790 
	C484.408875,1208.520020 577.703308,1212.592529 616.096191,1279.411377 
	C615.097595,1281.022095 614.127014,1282.382568 612.962341,1283.549194 
	C590.235779,1306.311523 567.532288,1329.097412 544.652588,1351.704834 
	C542.877869,1353.458374 539.859436,1354.790161 537.376160,1354.863403 
	C504.576447,1355.831055 475.386047,1366.726685 449.238403,1386.267578 
	C447.125366,1387.846680 444.958466,1389.353882 442.478943,1390.945801 
z"/>
<path fill="#010101" opacity="1.000000" stroke="none" 
	d="
M722.167969,1174.048218 
	C709.390930,1159.416260 696.138062,1145.573730 680.744263,1133.421875 
	C707.721863,1133.115601 734.869385,1133.115601 762.885498,1133.115601 
	C761.841125,1134.764038 761.286865,1136.109253 760.338928,1137.063354 
	C748.478638,1149.002197 736.567505,1160.890381 724.639099,1172.761230 
	C724.078857,1173.318726 723.234741,1173.591064 722.167969,1174.048218 
z"/>
</svg>